<?xml version="1.0" standalone="no"?>
<!DOCTYPE svg PUBLIC "-//W3C//DTD SVG 20010904//EN"
 "http://www.w3.org/TR/2001/REC-SVG-20010904/DTD/svg10.dtd">
<svg version="1.0" xmlns="http://www.w3.org/2000/svg"
 width="420.000000pt" height="420.000000pt" viewBox="0 0 420.000000 420.000000"
 preserveAspectRatio="xMidYMid meet">

<g transform="translate(0.000000,420.000000) scale(0.100000,-0.100000)"
fill="#000000" stroke="none">
<path d="M1735 3973 c-248 -13 -551 -58 -728 -109 -203 -58 -307 -117 -363
-206 l-25 -39 231 -1532 c127 -843 234 -1543 237 -1556 10 -41 86 -107 167
-146 89 -43 257 -87 423 -111 166 -25 590 -25 756 0 251 36 450 104 535 180
46 42 61 78 61 151 0 62 237 2095 251 2150 5 22 10 67 10 100 1 57 72 662 86
733 31 152 -281 294 -786 356 -254 32 -588 43 -855 29z m770 -68 c393 -45 675
-127 777 -225 44 -43 48 -49 42 -81 -51 -274 -1307 -416 -2154 -243 -229 47
-389 112 -455 186 -49 54 -46 81 13 138 121 117 507 211 997 244 135 9 645 -4
780 -19z m-1710 -483 c231 -115 718 -192 1215 -192 558 1 1079 95 1272 232
l28 19 -5 -28 c-6 -31 -45 -369 -45 -385 0 -5 -15 3 -34 20 -49 43 -86 49
-136 21 -48 -27 -83 -75 -112 -155 -18 -48 -22 -81 -23 -174 0 -103 3 -120 25
-165 46 -92 118 -116 190 -65 17 12 30 18 30 13 0 -4 -48 -415 -106 -913 -58
-498 -105 -938 -105 -977 0 -46 -4 -73 -11 -73 -6 0 -8 -11 -5 -30 17 -84
-158 -175 -445 -229 -310 -59 -753 -51 -1048 21 -108 26 -224 71 -275 106 -46
32 -85 94 -85 137 0 22 -263 1789 -306 2056 l-5 37 44 -43 c51 -49 93 -61 142
-41 45 19 64 52 78 129 22 132 -40 317 -136 403 -43 38 -55 44 -94 44 -35 0
-50 -6 -72 -28 l-28 -28 -23 151 c-12 82 -24 163 -27 179 l-6 29 34 -25 c19
-14 52 -35 74 -46z m113 -316 c98 -89 151 -312 98 -414 -9 -17 -25 -33 -36
-37 -50 -16 -140 82 -176 192 -26 79 -27 227 -1 266 25 39 67 36 115 -7z
m2275 -46 c32 -26 44 -64 52 -170 11 -139 -37 -272 -111 -307 -32 -16 -35 -16
-61 3 -103 77 -71 405 46 477 34 21 43 21 74 -3z"/>
<path d="M1511 2949 c-36 -11 -111 -57 -111 -69 0 -4 -9 -17 -20 -30 -11 -13
-20 -29 -20 -36 0 -7 -6 -14 -12 -16 -17 -6 -18 -255 -2 -266 6 -4 15 -18 19
-31 8 -27 13 -34 71 -97 58 -62 105 -85 192 -91 54 -4 83 -1 118 12 42 16 114
77 114 97 0 5 7 16 15 24 8 9 15 26 15 40 0 13 5 24 10 24 6 0 10 35 10 85 0
47 -4 85 -9 85 -5 0 -11 18 -15 40 -3 22 -10 40 -15 40 -5 0 -12 11 -15 25 -9
35 -92 117 -146 145 -51 26 -146 35 -199 19z m141 -54 c48 -17 122 -81 133
-115 3 -11 10 -20 15 -20 4 0 11 -18 15 -40 4 -22 11 -40 16 -40 5 0 9 -38 9
-85 0 -47 -4 -85 -9 -85 -5 0 -11 -13 -14 -29 -10 -47 -73 -104 -139 -125 -25
-7 -124 20 -147 41 -10 10 -31 29 -45 42 -14 13 -26 29 -26 37 0 8 -4 14 -9
14 -5 0 -13 10 -17 23 -4 12 -12 25 -18 29 -16 11 -15 240 2 245 6 3 12 11 12
19 0 21 75 92 102 97 46 9 75 7 120 -8z"/>
<path d="M1547 2473 c-18 -17 -2 -36 49 -59 59 -26 84 -26 84 1 0 10 -22 26
-55 41 -60 26 -68 28 -78 17z"/>
<path d="M2380 2921 c-50 -15 -89 -41 -111 -73 -12 -18 -30 -41 -40 -50 -19
-19 -39 -99 -39 -157 0 -46 27 -141 40 -141 6 0 10 -6 10 -13 0 -18 57 -71 98
-91 118 -60 268 -5 326 119 26 56 32 159 13 226 -20 68 -93 149 -155 173 -45
17 -100 20 -142 7z m105 -50 c32 -9 106 -73 123 -107 16 -31 25 -117 18 -167
-14 -91 -100 -177 -178 -177 -184 0 -268 269 -126 402 58 55 101 67 163 49z"/>
<path d="M2498 2529 c-39 -20 -49 -45 -24 -55 23 -9 98 34 94 54 -5 24 -27 24
-70 1z"/>
<path d="M1145 2222 c-28 -6 -95 -61 -95 -77 0 -7 -6 -18 -14 -24 -8 -7 -17
-28 -22 -49 -4 -20 -9 -44 -11 -52 -13 -50 1 -220 18 -220 5 0 9 -5 9 -11 0
-43 79 -144 140 -178 55 -31 126 -22 178 24 23 19 55 71 50 78 -2 2 3 11 11
21 22 27 29 112 17 214 -5 34 -12 62 -17 62 -5 0 -9 11 -9 25 0 14 -4 25 -9
25 -5 0 -12 11 -15 24 -6 23 -96 125 -96 110 0 -4 -8 0 -17 8 -20 17 -86 28
-118 20z m66 -55 c62 -21 139 -105 139 -151 0 -9 4 -16 9 -16 4 0 13 -27 18
-61 10 -62 2 -153 -18 -199 -6 -14 -10 -25 -8 -25 2 0 -6 -10 -16 -23 -46 -54
-115 -64 -158 -24 -13 12 -28 22 -34 22 -7 0 -15 9 -18 20 -3 11 -13 27 -21
35 -40 40 -69 196 -51 278 16 74 48 123 96 144 14 7 26 12 26 12 0 1 16 -5 36
-12z"/>
<path d="M1127 1763 c-18 -17 -2 -36 49 -59 59 -26 84 -26 84 1 0 10 -22 26
-55 41 -60 26 -68 28 -78 17z"/>
<path d="M2883 2209 c-13 -5 -23 -5 -23 -1 0 4 -5 0 -10 -9 -6 -10 -18 -15
-33 -12 -17 3 -28 -2 -41 -21 -9 -14 -25 -26 -36 -26 -11 0 -20 -6 -20 -13 0
-7 -11 -21 -25 -31 -14 -10 -25 -24 -25 -31 0 -6 -9 -21 -20 -32 -10 -12 -22
-33 -26 -47 -3 -14 -10 -26 -14 -26 -4 0 -7 -12 -7 -26 0 -15 -5 -29 -10 -33
-6 -3 -10 -13 -11 -21 -7 -118 -8 -170 -1 -170 5 0 9 -9 9 -19 0 -11 6 -22 13
-25 10 -5 10 -7 0 -12 -7 -3 -13 -10 -13 -15 0 -9 64 -40 90 -44 8 -1 38 -9
65 -17 54 -17 85 -20 85 -6 0 4 6 8 14 8 32 0 96 47 96 70 0 6 4 9 9 6 10 -6
35 20 44 47 4 10 11 15 17 12 5 -3 10 -1 10 5 0 6 11 35 25 64 25 54 50 157
42 179 -2 7 0 22 4 34 5 14 4 25 -2 29 -6 3 -8 12 -5 20 3 8 1 14 -5 14 -5 0
-9 6 -7 13 6 31 -61 112 -101 122 -14 4 -28 7 -31 7 -3 0 -12 3 -20 8 -8 4
-25 4 -37 -1z m7 -69 c0 -6 6 -10 13 -9 27 5 78 -13 73 -26 -2 -7 3 -15 13
-18 26 -6 49 -85 44 -154 -2 -32 -8 -60 -14 -61 -5 -2 -7 -8 -3 -13 7 -13 -36
-99 -63 -125 -13 -12 -23 -24 -23 -28 0 -3 -9 -15 -20 -26 -11 -11 -20 -17
-20 -13 0 3 -9 -2 -20 -12 -11 -10 -20 -15 -20 -12 0 4 -12 2 -27 -4 -38 -15
-83 -21 -83 -10 0 4 -14 12 -31 17 -17 5 -30 13 -29 18 1 5 -4 12 -12 17 -7 5
-13 12 -14 16 0 4 -5 19 -11 33 -19 47 -24 70 -15 70 5 0 9 17 9 38 0 53 7 81
31 135 12 27 26 45 32 42 5 -3 10 0 10 7 0 24 86 98 114 98 14 0 26 5 26 11 0
5 5 7 10 4 6 -3 10 -1 10 4 0 6 5 11 10 11 6 0 10 -5 10 -10z"/>
<path d="M2841 1726 c-42 -43 -50 -76 -18 -76 22 0 100 87 94 104 -10 26 -30
19 -76 -28z"/>
<path d="M1942 2009 c-35 -10 -132 -77 -132 -90 0 -4 -7 -15 -15 -23 -9 -8
-21 -38 -28 -66 -6 -27 -15 -50 -19 -50 -5 0 -8 -29 -8 -65 0 -36 3 -65 8 -65
4 0 13 -22 19 -50 12 -50 18 -60 64 -108 54 -57 98 -75 179 -76 92 0 141 26
218 119 7 8 18 38 25 65 6 28 15 50 19 50 5 0 8 29 8 65 0 36 -3 65 -8 65 -4
0 -13 22 -19 50 -12 50 -18 60 -64 108 -64 67 -165 96 -247 71z m171 -80 c29
-22 51 -47 58 -69 7 -19 17 -38 23 -42 14 -10 15 -206 0 -216 -5 -4 -16 -20
-23 -37 -7 -16 -32 -45 -56 -63 -80 -59 -145 -56 -217 11 -25 23 -49 53 -53
67 -4 14 -13 28 -19 32 -7 5 -11 44 -11 103 0 59 4 98 11 103 6 4 15 18 19 32
8 27 77 97 110 111 41 18 109 4 158 -32z"/>
<path d="M2020 1577 c-54 -23 -76 -52 -47 -63 8 -3 41 6 73 19 43 17 59 28 59
42 0 28 -22 28 -85 2z"/>
<path d="M1463 1310 c-54 -12 -122 -66 -123 -97 0 -7 -4 -13 -9 -13 -8 0 -19
-25 -27 -65 -20 -104 -1 -226 44 -273 6 -7 12 -20 12 -28 0 -8 4 -14 8 -14 5
0 14 -10 21 -23 7 -13 18 -24 25 -24 7 0 27 -11 45 -24 26 -19 44 -24 91 -23
50 1 64 6 93 30 42 37 67 69 72 94 2 11 7 25 10 31 17 26 21 209 6 219 -5 3
-16 22 -25 43 -8 21 -21 44 -28 52 -7 8 -24 28 -38 46 -22 27 -44 42 -72 48
-4 1 -22 8 -40 15 -20 8 -46 10 -65 6z m74 -67 c83 -38 124 -93 149 -199 10
-45 10 -65 -3 -120 -30 -130 -133 -181 -224 -111 -85 65 -119 143 -113 255 5
66 53 162 83 162 6 0 11 4 11 9 0 5 12 12 28 14 15 2 28 5 28 6 1 0 19 -7 41
-16z"/>
<path d="M1515 861 c-31 -5 -40 -10 -40 -26 0 -18 6 -20 65 -17 68 2 86 11 77
36 -7 17 -29 18 -102 7z"/>
<path d="M2427 1283 c-4 -3 -31 -8 -74 -12 -23 -2 -133 -118 -133 -140 0 -12
-4 -21 -9 -21 -13 0 -29 -99 -26 -153 4 -53 33 -137 47 -137 5 0 8 -6 6 -12
-5 -13 14 -38 28 -38 4 0 16 -8 26 -17 14 -12 40 -18 92 -20 69 -2 74 -1 107
30 19 17 37 30 42 29 4 -1 7 2 7 7 0 5 6 16 13 23 20 21 56 100 65 143 12 56
5 141 -16 195 -12 32 -69 91 -102 107 -31 14 -67 22 -73 16z m61 -70 c7 -7 16
-13 20 -13 4 0 18 -16 32 -36 21 -32 24 -47 24 -128 1 -78 -3 -97 -24 -136
-30 -54 -87 -109 -115 -112 -38 -2 -80 4 -83 13 -2 5 -12 9 -21 9 -38 0 -84
87 -84 160 0 45 15 120 24 120 5 0 9 7 9 16 0 17 54 85 66 83 4 0 10 5 15 12
20 34 108 42 137 12z"/>
<path d="M2443 898 c-54 -41 -65 -64 -38 -74 21 -8 127 74 123 95 -6 28 -31
21 -85 -21z"/>
<path d="M1167 603 c-4 -3 -7 -14 -7 -23 0 -13 36 -25 178 -59 674 -160 1083
-161 1489 -5 101 39 122 54 99 74 -12 9 -31 6 -98 -20 -215 -83 -347 -110
-583 -117 -134 -4 -217 -1 -325 11 -152 18 -468 77 -638 121 -114 28 -106 27
-115 18z"/>
<path d="M857 2773 c-16 -15 -4 -34 38 -59 46 -26 75 -27 75 0 0 8 -20 26 -44
40 -47 27 -58 30 -69 19z"/>
<path d="M3113 2679 c-44 -31 -54 -55 -29 -65 21 -8 108 54 104 74 -5 27 -30
24 -75 -9z"/>
</g>
</svg>
